<?xml version="1.0" encoding="UTF-8"?>
<svg width="60px" height="38px" viewBox="0 0 60 38" version="1.1" xmlns="http://www.w3.org/2000/svg" xmlns:xlink="http://www.w3.org/1999/xlink">
    <!-- Generator: Sketch 51.3 (57544) - http://www.bohemiancoding.com/sketch -->
    <title>020 - Left Two Lanes Arrow</title>
    <desc>Created with Sketch.</desc>
    <defs></defs>
    <g id="Page-1" stroke="none" stroke-width="1" fill="none" fill-rule="evenodd">
        <g id="020---Left-Two-Lanes-Arrow">
            <path d="M58,9 L55,9 L55,36 C54.9984072,36.5516236 54.5516236,36.9984072 54,37 L50,37 C49.4483764,36.9984072 49.0015928,36.5516236 49,36 L49,9 L46,9 C45.5955559,8.99830423 45.2319545,8.75315276 45.0787321,8.37885236 C44.9255097,8.00455196 45.0128386,7.57480911 45.3,7.29 L50.5,2.08 L51.29,1.29 C51.6830079,0.900022129 52.3169921,0.900022129 52.71,1.29 L58.7,7.29 C58.9871614,7.57480911 59.0744903,8.00455196 58.9212679,8.37885236 C58.7680455,8.75315276 58.4044441,8.99830423 58,9 Z" id="Shape" fill="#CAD9FC" fill-rule="nonzero"></path>
            <path d="M55,9 L52,9 L52,36 C51.9984072,36.5516236 51.5516236,36.9984072 51,37 L50,37 C49.4483764,36.9984072 49.0015928,36.5516236 49,36 L49,9 L46,9 C45.5955559,8.99830423 45.2319545,8.75315276 45.0787321,8.37885236 C44.9255097,8.00455196 45.0128386,7.57480911 45.3,7.29 L50.5,2.08 L55.7,7.29 C55.9871614,7.57480911 56.0744903,8.00455196 55.9212679,8.37885236 C55.7680455,8.75315276 55.4044441,8.99830423 55,9 Z" id="Shape" fill="#E8EDFC" fill-rule="nonzero"></path>
            <path d="M15.59,35.73 C15.6056305,36.2836557 15.1734017,36.7470763 14.62,36.77 L11.96,36.86 L10.63,36.91 C10.0783327,36.9304178 9.61371032,36.5015356 9.59,35.95 L8.89,16.9 C8.87009786,16.3699706 8.63977123,15.86973 8.25,15.51 L4.63,11.19 L3.01,12.83 L2.45,13.4 C2.17219573,13.691878 1.74608736,13.787993 1.36988392,13.6436358 C0.993680487,13.4992787 0.74124475,13.1427922 0.73,12.74 L0.71,12.13 L0.41,4.27 C0.394369462,3.71634433 0.826598321,3.2529237 1.38,3.23 L7.45,3.01 L9.98,2.92 C10.3851561,2.90294336 10.7603596,3.13271422 10.9293193,3.50135363 C11.0982791,3.86999304 11.0274059,4.3042157 10.75,4.6 L8.71,6.79 L13.24,11.97 C14.2135261,12.872062 14.7890266,14.1237758 14.84,15.45 L15.59,35.73 Z" id="Shape" fill="#CAD9FC" fill-rule="nonzero"></path>
            <path d="M35,15.7 L35,36 C34.9984072,36.5516236 34.5516236,36.9984072 34,37 L30,37 C29.4483764,36.9984072 29.0015928,36.5516236 29,36 L29,16.94 C28.9997807,16.4070833 28.787496,15.8961608 28.41,15.52 L24.96,11.07 L23.23,12.7 L22.7,13.2 C22.4116961,13.482608 21.9817379,13.5641382 21.6099894,13.4066917 C21.2382408,13.2492453 20.9976285,12.8837087 21,12.48 L21,4 C21.0015928,3.44837635 21.4483764,3.00159279 22,3 L30.61,3 C31.0147924,3.00068123 31.3795067,3.24459643 31.5347305,3.61844524 C31.6899542,3.99229406 31.6052644,4.42280395 31.32,4.71 L29.2,6.83 L33.54,12.17 C34.4751541,13.1067455 35.0002665,14.3763667 35,15.7 Z" id="Shape" fill="#CAD9FC" fill-rule="nonzero"></path>
            <path d="M11.96,36.86 L10.63,36.91 C10.0783327,36.9304178 9.61371032,36.5015356 9.59,35.95 L8.89,16.9 C8.87009786,16.3699706 8.63977123,15.86973 8.25,15.51 L4.63,11.19 L3.01,12.83 L1.63,14 L0.71,12.13 L0.41,4.27 C0.394369462,3.71634433 0.826598321,3.2529237 1.38,3.23 L7.45,3.01 C7.73776695,3.14842573 7.94260309,3.4153938 8.00180934,3.72918692 C8.06101559,4.04298004 7.9675419,4.36623297 7.75,4.6 L5.71,6.79 L10.24,11.97 C11.2135261,12.872062 11.7890266,14.1237758 11.84,15.45 L11.96,36.86 Z" id="Shape" fill="#E8EDFC" fill-rule="nonzero"></path>
            <path d="M32,15.7 L32,36 C31.9984072,36.5516236 31.5516236,36.9984072 31,37 L30,37 C29.4483764,36.9984072 29.0015928,36.5516236 29,36 L29,16.94 C28.9997807,16.4070833 28.787496,15.8961608 28.41,15.52 L24.96,11.07 L23.23,12.7 L21.96,11.07 L21,11.97 L21,4 C21.0015928,3.44837635 21.4483764,3.00159279 22,3 L27.61,3 C28.0147924,3.00068123 28.3795067,3.24459643 28.5347305,3.61844524 C28.6899542,3.99229406 28.6052644,4.42280395 28.32,4.71 L26.2,6.83 L30.54,12.17 C31.4751541,13.1067455 32.0002665,14.3763667 32,15.7 Z" id="Shape" fill="#E8EDFC" fill-rule="nonzero"></path>
            <path d="M6.01,12.83 L6.0068,12.8331 L8.25,15.51 C8.63977123,15.86973 8.87009786,16.3699706 8.89,16.9 L9.59,35.95 C9.61371032,36.5015356 10.0783327,36.9304178 10.63,36.91 L11,36.86 L12.2339,36.8182 C11.8823357,36.6690808 11.6475088,36.3314806 11.63,35.95 L11.89,16.9 C11.8700979,16.3699706 11.6397712,15.86973 11.25,15.51 L7.63,11.19 L6.01,12.83 Z" id="Shape" fill="#FFFFFF" fill-rule="nonzero"></path>
            <path d="M1.63,14 L2.0292,13.6616 C2.19048075,13.6139201 2.33587482,13.5235326 2.45,13.4 L3.01,12.83 L3.71,12.1217 L3.41,4.27 C3.39436946,3.71634433 3.82659832,3.2529237 4.38,3.23 L10.4226,3.011 C10.2842707,2.9462979 10.1326353,2.91512118 9.98,2.92 L7.45,3.01 L1.38,3.23 C0.826598321,3.2529237 0.394369462,3.71634433 0.41,4.27 L0.71,12.13 L0.73,12.74 C0.744012828,13.1778624 1.04330928,13.5548069 1.4666,13.6677 L1.63,14 Z" id="Shape" fill="#FFFFFF" fill-rule="nonzero"></path>
            <path d="M55,9 L55,36 C55,36.5522847 54.5522847,37 54,37 L50,37 C49.4477153,37 49,36.5522847 49,36 L49,9" id="Shape" stroke="#428DFF" stroke-width="2" stroke-linecap="round" stroke-linejoin="round"></path>
            <path d="M55,9 L58.0035,9 C58.4079441,8.99830423 58.7715455,8.75315276 58.9247679,8.37885236 C59.0779903,8.00455196 58.9906614,7.57480911 58.7035,7.29 L52.71,1.2925 C52.3169921,0.902522129 51.6830079,0.902522129 51.29,1.2925 L45.2965,7.29 C45.0093386,7.57480911 44.9220097,8.00455196 45.0752321,8.37885236 C45.2284545,8.75315276 45.5920559,8.99830423 45.9965,9 L49,9" id="Shape" stroke="#428DFF" stroke-width="2" stroke-linecap="round" stroke-linejoin="round"></path>
            <polygon id="Shape" fill="#FFFFFF" fill-rule="nonzero" points="8 36 8 23 8 16.938 10 16.938 10 23 10 36"></polygon>
            <path d="M9,31 C8.44837635,31.0015928 8.00159279,31.4483764 8,32 L8,36 L10,36 L10,32 C9.9983526,31.4483991 9.55160093,31.0016474 9,31 Z" id="Shape" fill="#428DFF" fill-rule="nonzero"></path>
            <path d="M10,16.9384 L8,16.9384 L8,24 C8,24.5522847 8.44771525,25 9,25 C9.55228475,25 10,24.5522847 10,24 L10,16.9384 Z" id="Shape" fill="#428DFF" fill-rule="nonzero"></path>
            <path d="M8,28 C8.0039589,28.2647108 8.10750224,28.5182135 8.29,28.71 L8.44,28.83 C8.49575598,28.867828 8.55628399,28.898092 8.62,28.92 C8.67666008,28.9488933 8.73733597,28.9691186 8.8,28.98 C8.86612874,28.9912482 8.93295338,28.9979306 9,29 C9.26476698,28.9963165 9.51836621,28.8927337 9.71,28.71 C9.95271017,28.476247 10.0591927,28.134706 9.99232838,27.8044366 C9.92546402,27.4741672 9.69451914,27.2009397 9.38,27.08 C9.25977769,27.028759 9.13067726,27.00158 9,27 C8.73396466,26.9972989 8.47803835,27.1017882 8.28991326,27.2899133 C8.10178817,27.4780384 7.99729892,27.7339647 8,28 Z" id="Shape" fill="#428DFF" fill-rule="nonzero"></path>
            <path d="M9,16.9384 C8.99999281,16.4079698 8.78927441,15.8992672 8.4142,15.5242 L4.96,11.07 L2.7,13.2 C2.41169614,13.482608 1.98173794,13.5641382 1.60998938,13.4066917 C1.23824082,13.2492453 0.997628546,12.8837087 1,12.48 L1,4 C1.00159279,3.44837635 1.44837635,3.00159279 2,3 L10.6117,3 C11.0168443,3.00000717 11.3820923,3.24406345 11.5371334,3.6183684 C11.6921744,3.99267335 11.6064767,4.42351612 11.32,4.71 L9.2,6.83 L13.5355,12.1655 C14.4732105,13.1031925 15.0000085,14.3749898 15,15.7011 L15,36 C14.9984072,36.5516236 14.5516236,36.9984072 14,37 L10,37 C9.44837635,36.9984072 9.00159279,36.5516236 9,36" id="Shape" stroke="#428DFF" stroke-width="2" stroke-linecap="round" stroke-linejoin="round"></path>
            <path d="M35,15.7011 L35,36 C34.9984072,36.5516236 34.5516236,36.9984072 34,37 L30,37 C29.4483764,36.9984072 29.0015928,36.5516236 29,36 L29,16.9384 C28.9999928,16.4079698 28.7892744,15.8992672 28.4142,15.5242 L24.96,11.07 L22.7,13.2 C22.4116961,13.482608 21.9817379,13.5641382 21.6099894,13.4066917 C21.2382408,13.2492453 20.9976285,12.8837087 21,12.48 L21,4 C21.0015928,3.44837635 21.4483764,3.00159279 22,3 L30.6117,3 C31.0168443,3.00000717 31.3820923,3.24406345 31.5371334,3.6183684 C31.6921744,3.99267335 31.6064767,4.42351612 31.32,4.71 L29.2,6.83 L33.5355,12.1655 C34.4732105,13.1031925 35.0000085,14.3749898 35,15.7011 Z" id="Shape" stroke="#428DFF" stroke-width="2" stroke-linecap="round" stroke-linejoin="round"></path>
        </g>
    </g>
</svg>