<?xml version="1.0" encoding="UTF-8"?>
<svg width="50px" height="60px" viewBox="0 0 50 60" version="1.1" xmlns="http://www.w3.org/2000/svg" xmlns:xlink="http://www.w3.org/1999/xlink">
    <!-- Generator: Sketch 51.3 (57544) - http://www.bohemiancoding.com/sketch -->
    <title>082 - Algorithm</title>
    <desc>Created with Sketch.</desc>
    <defs></defs>
    <g id="Page-1" stroke="none" stroke-width="1" fill="none" fill-rule="evenodd">
        <g id="082---Algorithm" transform="translate(1.000000, 0.000000)">
            <path d="M30.61,52.86 L25,58.61 C24.7553817,58.8604486 24.4200895,59.0016498 24.07,59.0016498 C23.7199105,59.0016498 23.3846183,58.8604486 23.14,58.61 L17.39,52.86 C17.1395514,52.6153817 16.9983502,52.2800895 16.9983502,51.93 C16.9983502,51.5799105 17.1395514,51.2446183 17.39,51 L22.56,45.95 L23.14,45.39 C23.3846183,45.1395514 23.7199105,44.9983502 24.07,44.9983502 C24.4200895,44.9983502 24.7553817,45.1395514 25,45.39 L30.61,51 C30.8604486,51.2446183 31.0016498,51.5799105 31.0016498,51.93 C31.0016498,52.2800895 30.8604486,52.6153817 30.61,52.86 Z" id="Shape" fill="#A4C2F7" fill-rule="nonzero"></path>
            <path d="M30.61,34.86 L25,40.61 C24.7553817,40.8604486 24.4200895,41.0016498 24.07,41.0016498 C23.7199105,41.0016498 23.3846183,40.8604486 23.14,40.61 L17.39,34.86 C17.1395514,34.6153817 16.9983502,34.2800895 16.9983502,33.93 C16.9983502,33.5799105 17.1395514,33.2446183 17.39,33 L22.56,27.95 L23.14,27.39 C23.3846183,27.1395514 23.7199105,26.9983502 24.07,26.9983502 C24.4200895,26.9983502 24.7553817,27.1395514 25,27.39 L30.61,33 C30.8604486,33.2446183 31.0016498,33.5799105 31.0016498,33.93 C31.0016498,34.2800895 30.8604486,34.6153817 30.61,34.86 Z" id="Shape" fill="#A4C2F7" fill-rule="nonzero"></path>
            <path d="M27.61,52.86 L22.56,58.03 L17.39,52.86 C17.1395514,52.6153817 16.9983502,52.2800895 16.9983502,51.93 C16.9983502,51.5799105 17.1395514,51.2446183 17.39,51 L22.56,45.95 L27.61,51 C27.8604486,51.2446183 28.0016498,51.5799105 28.0016498,51.93 C28.0016498,52.2800895 27.8604486,52.6153817 27.61,52.86 Z" id="Shape" fill="#E3E7F2" fill-rule="nonzero"></path>
            <path d="M27.61,34.86 L22.56,40.03 L17.39,34.86 C17.1395514,34.6153817 16.9983502,34.2800895 16.9983502,33.93 C16.9983502,33.5799105 17.1395514,33.2446183 17.39,33 L22.56,27.95 L27.61,33 C27.8604486,33.2446183 28.0016498,33.5799105 28.0016498,33.93 C28.0016498,34.2800895 27.8604486,34.6153817 27.61,34.86 Z" id="Shape" fill="#E3E7F2" fill-rule="nonzero"></path>
            <path d="M42,7 C42,10.31 33.94,13 24,13 C23.49,13 22.99,12.99 22.5,12.98 C13.26,12.72 6,10.14 6,7 C6,3.86 13.26,1.28 22.5,1.02 C22.99,1.01 23.49,1 24,1 C33.94,1 42,3.69 42,7 Z" id="Shape" fill="#A4C2F7" fill-rule="nonzero"></path>
            <ellipse id="Oval" fill="#E3E7F2" fill-rule="nonzero" cx="22.5" cy="7" rx="16.5" ry="5.98"></ellipse>
            <rect id="Rectangle-path" fill="#A4C2F7" fill-rule="nonzero" x="12" y="17" width="24" height="6" rx="2"></rect>
            <rect id="Rectangle-path" fill="#E3E7F2" fill-rule="nonzero" x="12" y="17" width="21" height="6" rx="2"></rect>
            <path d="M14,23 L17,23 C15.8967981,22.9967052 15.0032948,22.1032019 15,21 L15,19 C15.0032948,17.8967981 15.8967981,17.0032948 17,17 L14,17 C12.8967981,17.0032948 12.0032948,17.8967981 12,19 L12,21 C12.0032948,22.1032019 12.8967981,22.9967052 14,23 Z" id="Shape" fill="#FFFFFF" fill-rule="nonzero"></path>
            <path d="M22.5,12.98 C22.99,12.99 23.49,13 24,13 C24.477,13 24.946,12.988 25.414,12.976 C16.216,12.7 9,10.13 9,7 C9,3.87 16.216,1.3 25.414,1.024 C24.946,1.012 24.477,1 24,1 C23.49,1 22.99,1.01 22.5,1.02 C13.26,1.28 6,3.86 6,7 C6,10.14 13.26,12.72 22.5,12.98 Z" id="Shape" fill="#FFFFFF" fill-rule="nonzero"></path>
            <path d="M23.136,58.614 L17.386,52.864 C17.1388067,52.6168243 16.9999335,52.2815716 16.9999335,51.932 C16.9999335,51.5824284 17.1388067,51.2471757 17.386,51 L23.136,45.386 C23.3831757,45.1388067 23.7184284,44.9999335 24.068,44.9999335 C24.4175716,44.9999335 24.7528243,45.1388067 25,45.386 L30.614,51 C30.8611933,51.2471757 31.0000665,51.5824284 31.0000665,51.932 C31.0000665,52.2815716 30.8611933,52.6168243 30.614,52.864 L25,58.614 C24.7528243,58.8611933 24.4175716,59.0000665 24.068,59.0000665 C23.7184284,59.0000665 23.3831757,58.8611933 23.136,58.614 Z" id="Shape" stroke="#428DFF" stroke-width="2" stroke-linecap="round" stroke-linejoin="round"></path>
            <path d="M23.136,40.614 L17.386,34.864 C17.1388067,34.6168243 16.9999335,34.2815716 16.9999335,33.932 C16.9999335,33.5824284 17.1388067,33.2471757 17.386,33 L23.136,27.386 C23.3831757,27.1388067 23.7184284,26.9999335 24.068,26.9999335 C24.4175716,26.9999335 24.7528243,27.1388067 25,27.386 L30.614,33 C30.8611933,33.2471757 31.0000665,33.5824284 31.0000665,33.932 C31.0000665,34.2815716 30.8611933,34.6168243 30.614,34.864 L25,40.614 C24.7528243,40.8611933 24.4175716,41.0000665 24.068,41.0000665 C23.7184284,41.0000665 23.3831757,40.8611933 23.136,40.614 Z" id="Shape" stroke="#428DFF" stroke-width="2" stroke-linecap="round" stroke-linejoin="round"></path>
            <path d="M5,7 C5.03084715,6.23818715 5.30450899,5.50620306 5.781,4.911 C5.887,4.777 5.991,4.633 6.104,4.511 L6.458,4.184 C6.68230496,3.96591372 6.92824092,3.77124235 7.192,3.603 C8.1620667,2.94714838 9.2144984,2.42227748 10.322,2.042 C12.4344799,1.29709199 14.6190042,0.774924325 16.84,0.484 C19.2127474,0.158700973 21.6050594,-0.00301397619 24,-4.13599721e-05 L24,2 C21.6987357,1.99658885 19.3999669,2.1516221 17.12,2.464 C15.0418139,2.73566425 12.9974953,3.22261423 11.02,3.917 C10.0752688,4.2382804 9.17689795,4.68242259 8.348,5.238 C7.66594525,5.60386864 7.17470054,6.24598523 7,7 L5,7 Z" id="Shape" fill="#FFFFFF" fill-rule="nonzero"></path>
            <path d="M9.284,3.552 C9.1645438,3.30308539 8.94448232,3.11702537 8.67916984,3.04062149 C8.41385736,2.96421761 8.1285449,3.00474158 7.895,3.152 C7.23006828,3.52991128 6.61865114,3.99503224 6.077,4.535 C5.43863339,5.20400916 5.05718211,6.07706154 5,7 L7,7 C7.06156757,6.58620489 7.25027908,6.20179256 7.54,5.9 C7.94818512,5.50363345 8.40519628,5.16087508 8.9,4.88 C9.34320237,4.59648027 9.50749551,4.02829984 9.284,3.552 Z" id="Shape" fill="#428DFF" fill-rule="nonzero"></path>
            <path d="M24,2 L24,-1.05411556e-16 C21.6050594,-0.00301397619 19.2127474,0.158700973 16.84,0.484 L15.828,0.646 C15.562525,0.686037066 15.3248961,0.832703623 15.1700996,1.05206166 C15.015303,1.2714197 14.9567538,1.5444592 15.008,1.808 C15.1145256,2.34033518 15.6186691,2.69648533 16.156,2.619 L17.12,2.464 C19.3999669,2.1516221 21.6987357,1.99658885 24,2 Z" id="Shape" fill="#428DFF" fill-rule="nonzero"></path>
            <path d="M11.809,1.55 C11.5494318,1.63020587 11.329535,1.80512378 11.193,2.04 L11.122,2.218 C11.1022313,2.28283138 11.0921228,2.35022173 11.092,2.418 C11.0819707,2.48127169 11.0819707,2.54572831 11.092,2.609 C11.1020923,2.67667678 11.1171326,2.7435226 11.137,2.809 C11.2284111,3.05672357 11.4058819,3.26329963 11.637,3.391 C11.7502072,3.44949612 11.8732947,3.48645629 12,3.5 C12.3886067,3.53386127 12.7614329,3.33866428 12.955,3 C13.0168027,2.8855053 13.0561744,2.76026257 13.071,2.631 C13.0903816,2.50211279 13.0846086,2.37069125 13.054,2.244 C12.9838426,1.98657818 12.8173436,1.76601175 12.589,1.628 C12.3500365,1.49826938 12.0689208,1.4701578 11.809,1.55 Z" id="Shape" fill="#428DFF" fill-rule="nonzero"></path>
            <path d="M24,1 C33.941,1 42,3.686 42,7 C42,10.314 33.941,13 24,13 C14.059,13 6,10.314 6,7" id="Shape" stroke="#428DFF" stroke-width="2" stroke-linecap="round" stroke-linejoin="round"></path>
            <rect id="Rectangle-path" stroke="#428DFF" stroke-width="2" stroke-linecap="round" stroke-linejoin="round" x="12" y="17" width="24" height="6" rx="2"></rect>
            <path d="M24,14 L24,17" id="Shape" stroke="#428DFF" stroke-width="2" stroke-linecap="round" stroke-linejoin="round"></path>
            <path d="M24,41 L24,45" id="Shape" stroke="#428DFF" stroke-width="2" stroke-linecap="round" stroke-linejoin="round"></path>
            <path d="M31,34 L46,34 C47.1045695,34 48,33.1045695 48,32 L48,22 C48,20.8954305 47.1045695,20 46,20 L36,20" id="Shape" stroke="#428DFF" stroke-width="2" stroke-linecap="round" stroke-linejoin="round"></path>
            <path d="M17,52 L2,52 C0.8954305,52 0,51.1045695 0,50 L0,36 C0,34.8954305 0.8954305,34 2,34 L17,34" id="Shape" stroke="#428DFF" stroke-width="2" stroke-linecap="round" stroke-linejoin="round"></path>
            <path d="M24,23 L24,27" id="Shape" stroke="#428DFF" stroke-width="2" stroke-linecap="round" stroke-linejoin="round"></path>
            <polyline id="Shape" stroke="#428DFF" stroke-width="2" stroke-linecap="round" stroke-linejoin="round" points="7 30 10 34 7 38"></polyline>
            <polyline id="Shape" stroke="#428DFF" stroke-width="2" stroke-linecap="round" stroke-linejoin="round" points="43 24 40 20 43 16"></polyline>
        </g>
    </g>
</svg>