<?xml version="1.0" encoding="UTF-8"?>
<svg width="60px" height="60px" viewBox="0 0 60 60" version="1.1" xmlns="http://www.w3.org/2000/svg" xmlns:xlink="http://www.w3.org/1999/xlink">
    <title>rewrite-manager</title>
    <g id="Page-1" stroke="none" stroke-width="1" fill="none" fill-rule="evenodd">
        <g id="rewrite-manager" fill="#EFEFEF" fill-rule="nonzero">
            <path d="M34.0001,60 L26.0001,60 C25.4471,60 25.0001,59.552 25.0001,59 L25.0001,30 C25.0001,24.633 20.8711,17.917 16.0001,17.085 L16.0001,23 C16.0001,23.383 15.7811,23.732 15.4381,23.899 C15.0921,24.068 14.6841,24.023 14.3821,23.786 L0.3821,12.786 C0.1411,12.597 0.0001,12.307 0.0001,12 C0.0001,11.693 0.1411,11.403 0.3821,11.214 L14.3821,0.214 C14.6841,-0.022 15.0921,-0.066 15.4381,0.101 C15.7811,0.268 16.0001,0.617 16.0001,1 L16.0001,7.051 C21.3441,7.594 26.0311,12.4 30.0001,17.382 C33.9691,12.4 38.6561,7.594 44.0001,7.051 L44.0001,1 C44.0001,0.617 44.2191,0.268 44.5631,0.101 C44.9091,-0.066 45.3181,-0.022 45.6181,0.214 L59.6181,11.214 C59.8591,11.403 60.0001,11.693 60.0001,12 C60.0001,12.307 59.8591,12.597 59.6181,12.786 L45.6181,23.786 C45.3181,24.023 44.9091,24.068 44.5631,23.899 C44.2191,23.732 44.0001,23.383 44.0001,23 L44.0001,17.085 C39.1291,17.917 35.0001,24.633 35.0001,30 L35.0001,59 C35.0001,59.552 34.5531,60 34.0001,60" id="Fill-24"></path>
        </g>
    </g>
</svg>